<svg id="logout" xmlns="http://www.w3.org/2000/svg" width="17.4" height="15.725" viewBox="0 0 17.4 15.725">
  <path id="Path_25498" data-name="Path 25498" d="M11.166,15.725H.744A.665.665,0,0,1,0,15.069V.655A.665.665,0,0,1,.744,0H11.166a.665.665,0,0,1,.744.655V5.242a.665.665,0,0,1-.744.655.665.665,0,0,1-.744-.655V1.31H1.489v13.1h8.933V10.483a.665.665,0,0,1,.744-.655.665.665,0,0,1,.744.655v4.586A.665.665,0,0,1,11.166,15.725Z" fill="#6d6d6d"/>
  <g id="Group_8713" data-name="Group 8713" transform="translate(1 -1.138)">
    <path id="Path_25499" data-name="Path 25499" d="M17.531,12.316H7.658a.658.658,0,1,1,0-1.316h9.873a.658.658,0,0,1,0,1.316Z" transform="translate(-1.789 -3.157)" fill="#6d6d6d"/>
    <path id="Path_25500" data-name="Path 25500" d="M21.291,10.949a.6.6,0,0,1-.461-.2L18.2,8.119a.652.652,0,1,1,.921-.921L21.752,9.83a.636.636,0,0,1,0,.921.6.6,0,0,1-.461.2Z" transform="translate(-5.549 -1.789)" fill="#6d6d6d"/>
    <path id="Path_25501" data-name="Path 25501" d="M18.658,14.949a.6.6,0,0,1-.461-.2.636.636,0,0,1,0-.921L20.83,11.2a.652.652,0,0,1,.921.921l-2.633,2.633a.6.6,0,0,1-.461.2Z" transform="translate(-5.549 -3.157)" fill="#6d6d6d"/>
  </g>
</svg>
