<svg xmlns="http://www.w3.org/2000/svg" width="40.25" height="40.25" viewBox="0 0 40.25 40.25">
  <path id="Path_26753" data-name="Path 26753" d="M22.53,40.838h-3.8a3.381,3.381,0,0,1-3.381-3.381V35.263a.684.684,0,0,0-.443-.584.765.765,0,0,0-.825,0l-1.489,1.61a3.361,3.361,0,0,1-4.77,0l-2.757-2.7A3.341,3.341,0,0,1,4.055,31.2a3.461,3.461,0,0,1,1.006-2.435L6.55,27.274a.684.684,0,0,0,0-.745c-.121-.3-.322-.523-.6-.523H3.894A3.4,3.4,0,0,1,.513,22.6V18.8A3.381,3.381,0,0,1,3.894,15.42H6.088a.684.684,0,0,0,.584-.443.765.765,0,0,0,0-.825l-1.61-1.489a3.361,3.361,0,0,1,0-4.77l2.7-2.757A3.321,3.321,0,0,1,10.133,4.13a3.461,3.461,0,0,1,2.455,1.006l1.489,1.489a.684.684,0,0,0,.745,0c.3-.121.523-.322.523-.6V3.969a3.4,3.4,0,0,1,3.4-3.381h3.9a3.381,3.381,0,0,1,3.381,3.381V6.163a.684.684,0,0,0,.443.584.765.765,0,0,0,.825,0l1.389-1.61a3.361,3.361,0,0,1,4.77,0l2.757,2.7a3.361,3.361,0,0,1,1.006,2.395,3.28,3.28,0,0,1-1.006,2.435l-1.489,1.489a.684.684,0,0,0,0,.745c.121.3.322.523.6.523h2.194a3.4,3.4,0,0,1,3.24,3.4v3.9a3.381,3.381,0,0,1-3.381,3.381H35.188a.79.79,0,0,0-.584,1.187l1.55,1.55a3.361,3.361,0,0,1,0,4.77L33.518,36.29A3.321,3.321,0,0,1,31.143,37.3a3.461,3.461,0,0,1-2.395-1.006L27.2,34.8a.684.684,0,0,0-.745,0c-.3.121-.523.322-.523.6V37.6a3.4,3.4,0,0,1-3.4,3.24Zm-3.16-4.025h2.536v-1.55a4.689,4.689,0,0,1,2.938-4.307,4.749,4.749,0,0,1,5.212.946l1.087,1.087,1.771-1.771-1.087-1.107a4.749,4.749,0,0,1,3.341-8.07h1.57v-2.6h-1.55a4.689,4.689,0,0,1-4.307-2.938,4.75,4.75,0,0,1,.946-5.212l1.087-1.087L31.143,8.437,30.036,9.524a4.81,4.81,0,0,1-8.05-3.361V4.613H19.37v1.55a4.689,4.689,0,0,1-2.938,4.307,4.749,4.749,0,0,1-5.212-.946L10.133,8.437,8.362,10.208l1.087,1.107a4.81,4.81,0,0,1-3.361,8.05H4.538V21.9h1.55a4.689,4.689,0,0,1,4.307,2.938,4.75,4.75,0,0,1-.946,5.212L8.362,31.138l1.771,1.771,1.107-1.087a4.81,4.81,0,0,1,8.05,3.361Z" transform="translate(-0.513 -0.588)" fill="#b5b5b5"/>
</svg>
