<svg xmlns="http://www.w3.org/2000/svg" width="19.001" height="19" viewBox="0 0 19.001 19">
  <g id="Page-1" transform="translate(-7.998 -5.999)">
    <g id="Artboard-Copy" transform="translate(7.998 5.999)">
      <path id="grid" d="M356.187,255A1.189,1.189,0,0,0,355,256.187v5.937a1.189,1.189,0,0,0,1.189,1.188h5.937a1.188,1.188,0,0,0,1.187-1.187v-5.937A1.188,1.188,0,0,0,362.124,255Zm0,10.688A1.188,1.188,0,0,0,355,266.874v5.937A1.189,1.189,0,0,0,356.187,274h5.937a1.188,1.188,0,0,0,1.187-1.187v-5.937a1.188,1.188,0,0,0-1.187-1.187ZM366.874,255a1.188,1.188,0,0,0-1.187,1.188v5.937a1.188,1.188,0,0,0,1.187,1.188h5.937A1.188,1.188,0,0,0,374,262.124v-5.937A1.188,1.188,0,0,0,372.811,255Zm0,10.688a1.187,1.187,0,0,0-1.187,1.188v5.937A1.188,1.188,0,0,0,366.874,274h5.937A1.188,1.188,0,0,0,374,272.812v-5.937a1.187,1.187,0,0,0-1.187-1.187Z" transform="translate(-354.998 -254.999)" fill="#b5b5b5" fill-rule="evenodd"/>
    </g>
  </g>
</svg>
