<svg xmlns="http://www.w3.org/2000/svg" width="40.653" height="40" viewBox="0 0 40.653 40">
  <path id="Path_25958" data-name="Path 25958" d="M33.109,51.062a7.7,7.7,0,0,1-5.239-1.952,6.169,6.169,0,0,1-.048-9.458A7.653,7.653,0,0,1,33.109,37.7,7.654,7.654,0,0,1,38.4,39.652a6.213,6.213,0,0,1,0,9.458A7.654,7.654,0,0,1,33.109,51.062ZM27,57.483a6.117,6.117,0,0,0-2.183-4.729A7.653,7.653,0,0,0,19.525,50.8a7.477,7.477,0,0,0-5.239,1.952,6.175,6.175,0,0,0-2.135,4.729V69.457H27Zm-7.471-7.636a5.682,5.682,0,0,0,3.93-1.432,4.469,4.469,0,0,0,0-6.855,5.681,5.681,0,0,0-3.93-1.432,5.552,5.552,0,0,0-3.832,1.432,4.469,4.469,0,0,0,0,6.855A5.553,5.553,0,0,0,19.525,49.847ZM43.3,61.3a8.332,8.332,0,0,0-3.008-6.421,10.406,10.406,0,0,0-7.18-2.69,10.406,10.406,0,0,0-7.18,2.69A8.332,8.332,0,0,0,22.921,61.3a1.286,1.286,0,0,0,.048.347,1.073,1.073,0,0,1,.048.26h-.1V77.7H43.3ZM8.755,50.021a6.253,6.253,0,0,0-4.318,1.605,5,5,0,0,0-1.795,3.861v9.8H14.868V55.834h-.1v-.347a5.06,5.06,0,0,0-1.746-3.861A6.077,6.077,0,0,0,8.755,50.021Zm0-.694a4.566,4.566,0,0,0,3.153-1.171,3.69,3.69,0,0,0,0-5.64,4.566,4.566,0,0,0-3.153-1.171A4.7,4.7,0,0,0,5.5,42.516a3.652,3.652,0,0,0-1.31,2.82,3.6,3.6,0,0,0,1.358,2.82A4.746,4.746,0,0,0,8.755,49.327Z" transform="translate(-2.643 -37.7)" fill="#6ecad6"/>
</svg>
