<svg xmlns="http://www.w3.org/2000/svg" width="24.54" height="26" viewBox="0 0 24.54 26">
  <g id="_353416_home_icon" data-name="353416_home_icon" transform="translate(-8.501 -7.103)">
    <path id="Path_605" data-name="Path 605" d="M13.068,27.782V37.826a.458.458,0,0,0,.457.457h10.78V29.189h5.064v9.095h3.012a.457.457,0,0,0,.457-.457V27.782l-9.88-9.837Zm8.039,5.644H16.538V29.19h4.569Z" transform="translate(-2.182 -5.181)" fill="#6ecad6"/>
    <path id="Path_606" data-name="Path 606" d="M32.659,18.99,20.772,7.1,15.164,12.71V10.243a1.044,1.044,0,1,0-2.089,0V14.8L8.884,18.99a1.306,1.306,0,0,0,1.846,1.847L20.772,10.8l10.041,10.04a1.305,1.305,0,0,0,1.846-1.846Z" transform="translate(0 0)" fill="#6ecad6"/>
  </g>
</svg>
