<svg xmlns="http://www.w3.org/2000/svg" width="23.375" height="23.375" viewBox="0 0 23.375 23.375">
  <path id="_1608790_phone_icon" data-name="1608790_phone_icon" d="M215.375,146.461a5.479,5.479,0,0,1-.166,1.17,6.6,6.6,0,0,1-.349,1.137,4.451,4.451,0,0,1-2.025,1.76,6.154,6.154,0,0,1-3.96.789,7.175,7.175,0,0,1-.955-.208q-.531-.149-.789-.241t-.921-.34q-.664-.249-.813-.3a15.034,15.034,0,0,1-2.905-1.378,27.885,27.885,0,0,1-7.969-7.969,15.034,15.034,0,0,1-1.378-2.905q-.05-.149-.3-.813t-.34-.921q-.091-.257-.241-.789a7.175,7.175,0,0,1-.208-.955,6.154,6.154,0,0,1,.789-3.959,4.451,4.451,0,0,1,1.76-2.025,6.594,6.594,0,0,1,1.137-.349,5.479,5.479,0,0,1,1.17-.166.93.93,0,0,1,.349.05q.3.1.88,1.262.183.315.5.9t.581,1.054q.266.473.515.888.05.066.29.415a4.632,4.632,0,0,1,.357.589,1.083,1.083,0,0,1,.116.473,1.378,1.378,0,0,1-.473.83,8.094,8.094,0,0,1-1.029.913,10,10,0,0,0-1.029.88,1.265,1.265,0,0,0-.473.764,1.121,1.121,0,0,0,.083.374,3.628,3.628,0,0,0,.141.34q.058.116.232.4t.191.315a16.454,16.454,0,0,0,6.79,6.79q.033.017.315.191t.4.232a3.626,3.626,0,0,0,.34.141,1.122,1.122,0,0,0,.374.083,1.265,1.265,0,0,0,.764-.473,10,10,0,0,0,.88-1.029,8.1,8.1,0,0,1,.913-1.029,1.378,1.378,0,0,1,.83-.473,1.083,1.083,0,0,1,.473.116,4.633,4.633,0,0,1,.589.357q.349.241.415.291.415.249.888.515t1.054.581q.581.315.9.5,1.162.581,1.262.88A.93.93,0,0,1,215.375,146.461Z" transform="translate(-192 -128)" fill="#6ecad6"/>
</svg>
